<svg xmlns="http://www.w3.org/2000/svg" width="23.994" height="24.182"><path fill="#333" d="M17.211 8.285l-3.268 3.27c.037.153.063.314.063.479a2.005 2.005 0 0 1-2 2.006c-.748 0-1.393-.512-1.736-1.012H7.506c-.275 0-.5-.249-.5-.523v-.953c0-.274.225-.523.5-.523h2.764c.344-.5.988-1.012 1.736-1.012.197 0 .385.049.565.103l3.238-3.237a.502.502 0 0 1 .707 0l.694.696a.498.498 0 0 1 .001.706zm6.586 5.742c.115-1 .197-1.334.197-2.018 0-6.618-5.383-12.01-12-12.01S0 5.377 0 11.996C0 18.611 5.006 23.99 12.006 23.99v-.002c2-.006 4.509-.643 6.527-1.961l.057-.039 1.477 2.046c.162.224.361.188.442-.073l2.205-6.439c.082-.263-.077-.48-.353-.486l-6.835.002c-.276-.006-.37.174-.21.396l1.515 2.12c-1.495.961-2.825 1.424-4.825 1.431v.008A8.986 8.986 0 0 1 3 11.992c0-4.971 4.027-9 8.998-9 4.97 0 8.998 4.048 8.998 9.02 0 .688-.092 1.018-.24 2.018h3.041z"/></svg>